<?xml version="1.0" standalone="no"?><!DOCTYPE svg PUBLIC "-//W3C//DTD SVG 1.1//EN" "http://www.w3.org/Graphics/SVG/1.1/DTD/svg11.dtd"><svg t="1648023864262" class="icon" viewBox="0 0 1024 1024" version="1.1" xmlns="http://www.w3.org/2000/svg" p-id="7133" xmlns:xlink="http://www.w3.org/1999/xlink" width="200" height="200"><defs><style type="text/css">@font-face { font-family: feedback-iconfont; src: url("//at.alicdn.com/t/font_1031158_u69w8yhxdu.woff2?t=1630033759944") format("woff2"), url("//at.alicdn.com/t/font_1031158_u69w8yhxdu.woff?t=1630033759944") format("woff"), url("//at.alicdn.com/t/font_1031158_u69w8yhxdu.ttf?t=1630033759944") format("truetype"); }
</style></defs><path d="M733.696 994.304c-28.16 0-55.808-9.728-81.408-29.696-26.624-20.992-40.448-49.152-40.448-82.432v-143.36-41.472c0-34.304 0-70.144 0.512-104.96v-0.512h-0.512c-78.848 0.512-142.336 0.512-200.192 0h-0.512V696.32c-0.512 57.344-0.512 116.224 1.024 174.592 2.048 66.56-49.664 119.296-119.808 122.368-34.816 1.536-66.56-9.728-90.112-32.256-23.04-22.016-36.352-52.736-36.864-87.04-1.024-93.696-0.512-188.416 0-276.992v-6.144h-3.072-0.512c-45.056 0-80.896-24.576-98.304-67.584-16.384-40.96-7.168-79.872 26.624-115.2C198.144 296.448 296.448 192.512 391.168 92.16c34.816-37.376 84.48-77.312 155.648-56.32 14.848 4.096 42.496 14.848 62.464 35.328 104.96 108.032 209.92 218.624 311.808 325.632l18.944 19.968c28.672 30.208 35.84 68.608 19.456 107.52-16.896 41.472-50.176 65.536-91.136 66.048-6.144 0-9.216 0.512-10.24 1.024-0.512 1.536-1.024 5.12-1.024 13.312 1.024 48.128 1.024 97.28 0.512 144.896 0 38.912 0 79.36 0.512 118.784 0.512 52.736-22.528 91.136-67.072 111.616-18.944 9.728-38.4 14.336-57.344 14.336z m-75.776-278.528v166.4c0 18.944 7.168 33.792 22.528 46.08 28.672 22.528 58.88 26.112 91.648 10.752 28.16-13.312 40.96-34.304 40.448-69.632-0.512-39.936-0.512-80.384-0.512-119.808 0-47.104 0-95.744-0.512-143.872-0.512-15.872 1.024-33.792 13.824-46.592 12.8-13.312 30.72-14.848 43.52-14.848 22.016 0 38.4-12.8 48.64-37.376 9.216-22.528 5.632-41.472-10.24-58.368l-18.944-19.968c-101.888-107.008-206.848-217.6-311.808-325.12-9.216-9.728-24.576-17.92-42.496-23.552-38.4-11.264-69.12 1.024-109.056 43.52-94.72 100.864-193.536 204.8-302.08 316.928-20.992 22.016-26.624 42.496-16.896 66.048 10.24 25.6 28.672 38.4 55.296 38.4h0.512c15.872 0 28.16 4.096 36.352 12.8 11.264 11.264 12.8 26.624 12.8 39.936-0.512 88.064-1.024 182.784 0 275.968 0.512 22.016 8.192 40.448 22.016 54.272 14.336 13.312 34.304 20.48 56.32 19.456 38.912-1.536 77.312-28.16 75.776-75.264-2.048-58.88-1.536-118.272-1.024-176.128 0-33.28 0.512-67.072 0-100.864 0-11.776 1.024-26.624 12.288-37.888 8.192-8.192 19.456-11.776 34.816-11.776 57.344 0.512 120.832 0.512 199.168 0 5.632 0 23.04 0 35.328 12.288 12.288 12.288 11.776 29.696 11.776 35.328-0.512 34.816-0.512 69.632-0.512 103.936 1.024 6.656 1.024 12.8 1.024 18.944z" fill="#989898" p-id="7134"></path></svg>